<?xml version="1.0" encoding="UTF-8" standalone="no"?>
<!-- Created with Inkscape (http://www.inkscape.org/) -->

<svg
   xmlns:dc="http://purl.org/dc/elements/1.1/"
   xmlns:cc="http://creativecommons.org/ns#"
   xmlns:rdf="http://www.w3.org/1999/02/22-rdf-syntax-ns#"
   xmlns:svg="http://www.w3.org/2000/svg"
   xmlns="http://www.w3.org/2000/svg"
   xmlns:sodipodi="http://sodipodi.sourceforge.net/DTD/sodipodi-0.dtd"
   xmlns:inkscape="http://www.inkscape.org/namespaces/inkscape"
   width="340.07132mm"
   height="216.53824mm"
   viewBox="0 0 1204.9771 767.26147"
   id="svg2"
   version="1.1"
   inkscape:version="0.91 r13725"
   sodipodi:docname="soliva-tech-club-logo-white.svg">
  <defs
     id="defs4" />
  <sodipodi:namedview
     id="base"
     pagecolor="#ffffff"
     bordercolor="#666666"
     borderopacity="1.0"
     inkscape:pageopacity="0.0"
     inkscape:pageshadow="2"
     inkscape:zoom="0.35"
     inkscape:cx="1015.5252"
     inkscape:cy="218.16612"
     inkscape:document-units="px"
     inkscape:current-layer="g4357"
     showgrid="false"
     showguides="true"
     inkscape:guide-bbox="true"
     inkscape:window-width="1680"
     inkscape:window-height="919"
     inkscape:window-x="0"
     inkscape:window-y="1"
     inkscape:window-maximized="1"
     fit-margin-top="0"
     fit-margin-left="0"
     fit-margin-right="0"
     fit-margin-bottom="0">
    <sodipodi:guide
       position="746.23947,766.7376"
       orientation="0,1"
       id="guide4159" />
    <sodipodi:guide
       position="709.09661,-1.8338741"
       orientation="0,1"
       id="guide4161" />
  </sodipodi:namedview>
  <metadata
     id="metadata7">
    <rdf:RDF>
      <cc:Work
         rdf:about="">
        <dc:format>image/svg+xml</dc:format>
        <dc:type
           rdf:resource="http://purl.org/dc/dcmitype/StillImage" />
        <dc:title></dc:title>
      </cc:Work>
    </rdf:RDF>
  </metadata>
  <g
     inkscape:label="Layer 1"
     inkscape:groupmode="layer"
     id="layer1"
     transform="translate(1631.9538,16.733139)">
    <g
       id="g4200">
      <text
         transform="scale(1.140204,0.87703603)"
         sodipodi:linespacing="105%"
         id="text4151"
         y="184.87341"
         x="-723.11823"
         style="font-style:normal;font-variant:normal;font-weight:bold;font-stretch:normal;font-size:270.90466309px;line-height:104.99999523%;font-family:'Steelfish Rounded';-inkscape-font-specification:'Steelfish Rounded Bold';letter-spacing:0px;word-spacing:0px;fill:#000000;fill-opacity:1;stroke:none;stroke-width:1px;stroke-linecap:butt;stroke-linejoin:miter;stroke-opacity:1"
         xml:space="preserve"><tspan
           style="font-size:239.9907074px;fill:#ffffff"
           y="184.87341"
           x="-723.11823"
           id="tspan4153"
           sodipodi:role="line">Soliva</tspan><tspan
           style="font-size:311.98791504px;fill:#ffffff"
           id="tspan4155"
           y="503.07407"
           x="-723.11823"
           sodipodi:role="line">Tech</tspan><tspan
           style="font-size:335.98699951px;fill:#ffffff"
           id="tspan4157"
           y="852.73151"
           x="-723.11823"
           sodipodi:role="line">Club</tspan></text>
      <g
         style="fill:#000000"
         transform="matrix(1.5087426,0,0,1.4975821,-1631.9538,-16.734637)"
         id="g4357">
        <g
           style="fill:#ffffff"
           id="g4303">
          <g
             style="fill:#ffffff"
             id="g4305">
            <path
               style="fill:#ffffff"
               inkscape:connector-curvature="0"
               d="m 504.5,248.501 -120.758,0 0,-17.064 32.581,0 c 4.142,0 7.5,-3.358 7.5,-7.5 0,-4.142 -3.358,-7.5 -7.5,-7.5 l -32.581,0 0,-17.065 22.62,0 c 8.427,0 16.35,-3.281 22.308,-9.24 l 49.326,-49.326 c 3.214,1.601 6.777,2.453 10.473,2.453 6.286,0 12.195,-2.448 16.64,-6.892 4.445,-4.445 6.893,-10.354 6.893,-16.64 0,-6.286 -2.448,-12.195 -6.893,-16.64 -4.444,-4.445 -10.354,-6.893 -16.64,-6.893 -6.286,0 -12.195,2.448 -16.64,6.892 -4.445,4.445 -6.893,10.354 -6.893,16.64 0,3.696 0.852,7.259 2.453,10.473 l -49.326,49.326 c -3.125,3.125 -7.281,4.847 -11.702,4.847 l -22.62,0 0,-16.548 c 0,-21.816 -17.749,-39.564 -39.564,-39.564 l -16.548,0 0,-66.395 c 9.308,-3.139 16.032,-11.946 16.032,-22.3 0,-12.976 -10.557,-23.532 -23.532,-23.532 -12.975,0 -23.532,10.557 -23.532,23.532 0,10.354 6.724,19.16 16.032,22.3 l 0,66.394 -17.064,0 0,-32.581 c 0,-4.142 -3.358,-7.5 -7.5,-7.5 -4.142,0 -7.5,3.358 -7.5,7.5 l 0,32.581 -17.065,0 0,-120.758 c 0,-4.142 -3.358,-7.5 -7.5,-7.5 -4.142,0 -7.5,3.358 -7.5,7.5 l 0,120.758 -17.064,0 0,-32.581 c 0,-4.142 -3.358,-7.5 -7.5,-7.5 -4.142,0 -7.5,3.358 -7.5,7.5 l 0,32.581 -17.064,0 0,-22.619 c 0,-8.427 -3.282,-16.35 -9.241,-22.308 L 140.788,33.989 c 4.359,-8.801 2.898,-19.775 -4.421,-27.095 -9.176,-9.175 -24.105,-9.174 -33.28,0 -9.175,9.175 -9.175,24.104 0,33.28 4.588,4.587 10.614,6.881 16.64,6.881 3.588,0 7.17,-0.833 10.455,-2.46 l 49.343,49.344 c 3.126,3.125 4.847,7.281 4.847,11.701 l 0,22.619 -16.548,0 c -3.345,0 -6.672,0.42 -9.888,1.247 -4.011,1.032 -6.426,5.121 -5.394,9.133 1.032,4.012 5.122,6.427 9.133,5.394 1.995,-0.513 4.063,-0.774 6.148,-0.774 l 176.354,0 c 13.545,0 24.564,11.02 24.564,24.564 l 0,176.355 c 0,2.083 -0.26,4.15 -0.772,6.143 -1.031,4.012 1.385,8.1 5.396,9.131 0.626,0.161 1.254,0.238 1.873,0.238 3.341,0 6.388,-2.249 7.258,-5.635 0.826,-3.212 1.245,-6.536 1.245,-9.878 l 0,-16.548 66.394,0 c 3.139,9.308 11.946,16.032 22.3,16.032 12.976,0 23.532,-10.556 23.532,-23.532 0,-12.976 -10.557,-23.532 -23.532,-23.532 -10.354,0 -19.16,6.724 -22.3,16.032 l -66.394,0 0,-17.065 32.581,0 c 4.142,0 7.5,-3.358 7.5,-7.5 0,-4.142 -3.358,-7.5 -7.5,-7.5 l -32.581,0 0,-17.063 120.759,0 c 4.142,0 7.5,-3.358 7.5,-7.5 0,-4.142 -3.358,-7.5 -7.5,-7.5 z M 482.435,113.694 c 1.612,-1.612 3.754,-2.499 6.033,-2.499 2.279,0 4.421,0.887 6.033,2.499 1.612,1.612 2.499,3.754 2.499,6.033 0,2.279 -0.887,4.421 -2.499,6.033 -1.612,1.612 -3.754,2.499 -6.033,2.499 -2.279,0 -4.421,-0.887 -6.033,-2.499 -1.612,-1.612 -2.499,-3.754 -2.499,-6.033 0,-2.279 0.887,-4.422 2.499,-6.033 z M 125.759,29.568 c -3.326,3.325 -8.739,3.326 -12.067,-0.001 -3.327,-3.327 -3.327,-8.74 0,-12.066 1.664,-1.664 3.848,-2.495 6.034,-2.495 2.185,0 4.37,0.832 6.033,2.495 3.327,3.327 3.327,8.74 0,12.067 z m 194.37,18.529 c -4.704,0 -8.532,-3.828 -8.532,-8.532 0,-4.704 3.827,-8.532 8.532,-8.532 4.705,0 8.532,3.828 8.532,8.532 0,4.704 -3.828,8.532 -8.532,8.532 z m 152.307,263.501 c 4.705,0 8.532,3.828 8.532,8.532 0,4.705 -3.828,8.532 -8.532,8.532 -4.704,0 -8.532,-3.828 -8.532,-8.532 -10e-4,-4.705 3.827,-8.532 8.532,-8.532 z"
               id="path4307" />
          </g>
        </g>
        <g
           style="fill:#ffffff"
           id="g4309">
          <g
             style="fill:#ffffff"
             id="g4311">
            <path
               style="fill:#ffffff"
               inkscape:connector-curvature="0"
               d="m 408.914,471.829 c -7.319,-7.32 -18.294,-8.781 -27.095,-4.422 l -49.343,-49.344 c -3.126,-3.125 -4.847,-7.281 -4.847,-11.701 l 0,-22.619 16.548,0 c 3.345,0 6.671,-0.42 9.886,-1.247 4.011,-1.032 6.426,-5.121 5.394,-9.133 -1.032,-4.011 -5.119,-6.426 -9.133,-5.394 -1.994,0.513 -4.062,0.773 -6.147,0.773 l -176.354,0 c -13.545,0 -24.564,-11.02 -24.564,-24.564 l 0,-176.354 c 0,-2.085 0.26,-4.153 0.773,-6.146 1.033,-4.011 -1.382,-8.1 -5.393,-9.133 -4.012,-1.033 -8.101,1.382 -9.133,5.393 -0.828,3.214 -1.247,6.54 -1.247,9.886 l 0,16.548 -66.395,0 c -3.139,-9.308 -11.946,-16.032 -22.3,-16.032 -12.976,0 -23.532,10.556 -23.532,23.532 0,12.976 10.557,23.532 23.532,23.532 10.354,0 19.16,-6.724 22.3,-16.032 l 66.394,0 0,17.065 -32.581,0 c -4.142,0 -7.5,3.358 -7.5,7.5 0,4.142 3.358,7.5 7.5,7.5 l 32.581,0 0,17.064 -120.758,0 c -4.142,0 -7.5,3.358 -7.5,7.5 0,4.142 3.358,7.5 7.5,7.5 l 120.758,0 0,17.064 -32.581,0 c -4.142,0 -7.5,3.358 -7.5,7.5 0,4.142 3.358,7.5 7.5,7.5 l 32.581,0 0,17.065 -22.62,0 c -8.427,0 -16.35,3.281 -22.308,9.24 l -49.326,49.326 c -3.214,-1.601 -6.777,-2.453 -10.473,-2.453 -6.286,0 -12.195,2.448 -16.64,6.892 C 2.448,380.08 0,385.99 0,392.275 c 0,6.285 2.448,12.195 6.893,16.64 4.444,4.445 10.354,6.892 16.64,6.892 6.286,0 12.195,-2.448 16.64,-6.892 4.445,-4.445 6.893,-10.354 6.893,-16.64 0,-3.696 -0.852,-7.259 -2.453,-10.473 l 49.326,-49.326 c 3.125,-3.125 7.281,-4.847 11.702,-4.847 l 22.62,0 0,16.548 c 0,21.816 17.749,39.564 39.564,39.564 l 16.548,0 0,66.394 c -9.308,3.139 -16.032,11.946 -16.032,22.3 0,12.976 10.557,23.532 23.532,23.532 12.975,0 23.532,-10.557 23.532,-23.532 0,-10.354 -6.724,-19.16 -16.032,-22.3 l 0,-66.394 17.064,0 0,32.581 c 0,4.142 3.358,7.5 7.5,7.5 4.142,0 7.5,-3.358 7.5,-7.5 l 0,-32.581 17.063,0 0,120.76 c 0,4.142 3.358,7.5 7.5,7.5 4.142,0 7.5,-3.358 7.5,-7.5 l 0,-120.758 17.064,0 0,32.581 c 0,4.142 3.358,7.5 7.5,7.5 4.142,0 7.5,-3.358 7.5,-7.5 l 0,-32.581 17.064,0 0,22.619 c 0,8.427 3.282,16.35 9.241,22.308 l 49.343,49.343 c -4.359,8.801 -2.898,19.775 4.422,27.095 4.587,4.588 10.614,6.881 16.64,6.881 6.026,0 12.053,-2.293 16.64,-6.881 9.175,-9.175 9.175,-24.104 0,-33.279 z M 39.564,200.404 c -4.705,0 -8.532,-3.828 -8.532,-8.532 0,-4.705 3.828,-8.532 8.532,-8.532 4.704,0 8.532,3.828 8.532,8.532 0.001,4.705 -3.827,8.532 -8.532,8.532 z m -9.999,197.904 c -1.612,1.612 -3.754,2.499 -6.033,2.499 -2.279,0 -4.421,-0.887 -6.033,-2.499 C 15.887,396.696 15,394.554 15,392.275 c 0,-2.279 0.887,-4.421 2.499,-6.033 1.612,-1.612 3.754,-2.499 6.033,-2.499 2.279,0 4.421,0.887 6.033,2.499 1.612,1.612 2.499,3.754 2.499,6.033 0,2.279 -0.887,4.422 -2.499,6.033 z m 170.838,74.129 c 0,4.704 -3.827,8.532 -8.532,8.532 -4.705,0 -8.532,-3.828 -8.532,-8.532 0,-4.704 3.828,-8.532 8.532,-8.532 4.704,0 8.532,3.828 8.532,8.532 z m 197.905,22.065 c -3.327,3.327 -8.74,3.326 -12.067,0 -3.327,-3.327 -3.327,-8.74 0,-12.066 1.664,-1.663 3.849,-2.495 6.034,-2.495 2.185,0 4.37,0.832 6.033,2.495 3.326,3.326 3.326,8.739 0,12.066 z"
               id="path4313" />
          </g>
        </g>
        <g
           style="fill:#ffffff;fill-opacity:1"
           id="g4315">
          <g
             style="fill:#ffffff;fill-opacity:1"
             id="g4317">
            <path
               style="fill:#ffffff;fill-opacity:1"
               inkscape:connector-curvature="0"
               d="m 335.645,235.962 c 0,-16.04 -11.732,-29.627 -27.793,-34.042 0.475,-1.961 0.739,-3.978 0.739,-6.039 0,-15.186 -13.479,-27.541 -30.045,-27.541 -8.974,0 -17.035,3.629 -22.545,9.365 -5.51,-5.736 -13.572,-9.365 -22.545,-9.365 -16.567,0 -30.045,12.355 -30.045,27.541 0,2.061 0.264,4.078 0.739,6.039 -16.061,4.414 -27.793,18.001 -27.793,34.042 0,7.839 2.774,15.235 7.899,21.343 -5.011,6.487 -7.899,14.362 -7.899,22.746 -0.002,12.752 6.812,24.659 18.035,32.045 0,0.006 0,0.012 0,0.018 0,17.396 15.501,31.549 34.555,31.549 10.95,0 20.719,-4.679 27.054,-11.957 6.335,7.278 16.104,11.957 27.054,11.957 18.337,0 33.376,-13.11 34.482,-29.602 11.137,-6.462 18.108,-17.781 18.108,-30.003 0,-8.99 -3.833,-17.566 -10.43,-24.048 6.596,-6.482 10.43,-15.059 10.43,-24.048 z m -26.544,30.68 c 7.227,3.814 11.541,10.325 11.541,17.416 0,5.287 -2.457,10.33 -6.607,14.101 -3.943,-7.301 -10.912,-13.113 -19.717,-15.879 -3.95,-1.241 -8.161,0.956 -9.403,4.907 -1.242,3.952 0.956,8.162 4.907,9.403 7.646,2.403 12.784,8.642 12.784,15.525 0,9.125 -8.772,16.549 -19.555,16.549 -10.782,0 -19.554,-7.424 -19.554,-16.549 l 0,-48.097 c 0,-9.125 8.772,-16.548 19.554,-16.548 4.142,0 7.5,-3.358 7.5,-7.5 0,-4.142 -3.358,-7.5 -7.5,-7.5 -7.254,0 -13.99,2.056 -19.554,5.557 l 0,-9.58 c 0,-4.142 -3.358,-7.5 -7.5,-7.5 -4.142,0 -7.5,3.358 -7.5,7.5 l 0,41.637 c -2.524,-1.584 -5.292,-2.895 -8.286,-3.836 -3.954,-1.242 -8.162,0.956 -9.403,4.906 -1.242,3.952 0.955,8.162 4.906,9.404 7.646,2.403 12.783,8.642 12.783,15.524 l 0,16.032 c 0,9.125 -8.772,16.549 -19.554,16.549 -10.783,0 -19.555,-7.424 -19.555,-16.549 0,-3.911 1.658,-7.713 4.668,-10.705 2.938,-2.92 2.952,-7.669 0.032,-10.607 -2.92,-2.938 -7.668,-2.952 -10.606,-0.032 -1.797,1.787 -3.344,3.739 -4.63,5.814 -4.736,-4.48 -7.501,-10.374 -7.501,-16.535 0,-11.112 8.721,-20.874 21.208,-23.739 4.037,-0.926 6.559,-4.95 5.633,-8.987 -0.926,-4.038 -4.951,-6.559 -8.987,-5.633 -5.027,1.153 -9.655,3.078 -13.759,5.605 -2.661,-3.342 -4.094,-7.256 -4.094,-11.335 0.003,-11.281 10.697,-20.465 23.88,-20.552 0.067,0.002 0.134,0.011 0.2,0.011 1.712,0 3.433,-0.583 4.842,-1.776 2.875,-2.434 3.452,-6.564 1.522,-9.671 -0.057,-0.092 -0.109,-0.186 -0.169,-0.275 -0.031,-0.045 -0.068,-0.088 -0.1,-0.133 -0.116,-0.163 -0.235,-0.323 -0.364,-0.477 -0.004,-0.005 -0.007,-0.01 -0.011,-0.014 -1.251,-1.479 -2.744,-3.927 -2.744,-7.193 0,-6.915 6.75,-12.541 15.045,-12.541 8.295,0 15.045,5.626 15.045,12.541 0,4.142 3.358,7.5 7.5,7.5 4.142,0 7.5,-3.358 7.5,-7.5 0,-6.915 6.75,-12.541 15.045,-12.541 8.295,0 15.045,5.626 15.045,12.541 0,1.848 -0.484,3.424 -1.125,4.72 -4.266,0.403 -8.392,1.434 -12.309,3.086 -3.817,1.609 -5.606,6.008 -3.997,9.825 1.609,3.816 6.008,5.607 9.825,3.997 3.242,-1.367 6.73,-2.07 10.368,-2.098 0.072,0.002 0.143,0.009 0.215,0.009 0.067,0 0.133,-0.009 0.2,-0.011 13.183,0.086 23.877,9.271 23.877,20.552 0,7.091 -4.314,13.601 -11.541,17.416 -2.46,1.298 -4,3.851 -4,6.633 0,2.782 1.54,5.335 4,6.633 z"
               id="path4319" />
          </g>
        </g>
        <g
           style="fill:#000000"
           id="g4321" />
        <g
           style="fill:#000000"
           id="g4323" />
        <g
           style="fill:#000000"
           id="g4325" />
        <g
           style="fill:#000000"
           id="g4327" />
        <g
           style="fill:#000000"
           id="g4329" />
        <g
           style="fill:#000000"
           id="g4331" />
        <g
           style="fill:#000000"
           id="g4333" />
        <g
           style="fill:#000000"
           id="g4335" />
        <g
           style="fill:#000000"
           id="g4337" />
        <g
           style="fill:#000000"
           id="g4339" />
        <g
           style="fill:#000000"
           id="g4341" />
        <g
           style="fill:#000000"
           id="g4343" />
        <g
           style="fill:#000000"
           id="g4345" />
        <g
           style="fill:#000000"
           id="g4347" />
        <g
           style="fill:#000000"
           id="g4349" />
      </g>
    </g>
  </g>
</svg>
