<?xml version="1.0" encoding="UTF-8" standalone="no"?>
<!-- Created with Inkscape (http://www.inkscape.org/) -->

<svg
   xmlns:dc="http://purl.org/dc/elements/1.1/"
   xmlns:cc="http://creativecommons.org/ns#"
   xmlns:rdf="http://www.w3.org/1999/02/22-rdf-syntax-ns#"
   xmlns:svg="http://www.w3.org/2000/svg"
   xmlns="http://www.w3.org/2000/svg"
   xmlns:sodipodi="http://sodipodi.sourceforge.net/DTD/sodipodi-0.dtd"
   xmlns:inkscape="http://www.inkscape.org/namespaces/inkscape"
   width="340.07132mm"
   height="216.53824mm"
   viewBox="0 0 1204.9771 767.26147"
   id="svg2"
   version="1.1"
   inkscape:version="0.91 r13725"
   sodipodi:docname="soliva-tech-club-logo-white.svg">
  <defs
     id="defs4" />
  <sodipodi:namedview
     id="base"
     pagecolor="#ffffff"
     bordercolor="#666666"
     borderopacity="1.0"
     inkscape:pageopacity="0.0"
     inkscape:pageshadow="2"
     inkscape:zoom="0.35"
     inkscape:cx="1015.5252"
     inkscape:cy="218.16612"
     inkscape:document-units="px"
     inkscape:current-layer="g4200"
     showgrid="false"
     showguides="true"
     inkscape:guide-bbox="true"
     inkscape:window-width="1680"
     inkscape:window-height="919"
     inkscape:window-x="0"
     inkscape:window-y="1"
     inkscape:window-maximized="1"
     fit-margin-top="0"
     fit-margin-left="0"
     fit-margin-right="0"
     fit-margin-bottom="0">
    <sodipodi:guide
       position="746.23947,766.7376"
       orientation="0,1"
       id="guide4159" />
    <sodipodi:guide
       position="709.09661,-1.8338741"
       orientation="0,1"
       id="guide4161" />
  </sodipodi:namedview>
  <metadata
     id="metadata7">
    <rdf:RDF>
      <cc:Work
         rdf:about="">
        <dc:format>image/svg+xml</dc:format>
        <dc:type
           rdf:resource="http://purl.org/dc/dcmitype/StillImage" />
        <dc:title></dc:title>
      </cc:Work>
    </rdf:RDF>
  </metadata>
  <g
     inkscape:label="Layer 1"
     inkscape:groupmode="layer"
     id="layer1"
     transform="translate(1631.9538,16.733139)">
    <g
       id="g4200">
      <g
         transform="scale(1.140204,0.87703603)"
         style="font-style:normal;font-variant:normal;font-weight:bold;font-stretch:normal;font-size:270.90466309px;line-height:104.99999523%;font-family:'Steelfish Rounded';-inkscape-font-specification:'Steelfish Rounded Bold';letter-spacing:0px;word-spacing:0px;fill:#000000;fill-opacity:1;stroke:none;stroke-width:1px;stroke-linecap:butt;stroke-linejoin:miter;stroke-opacity:1"
         id="text4151">
        <path
           d="m -676.56003,126.31568 q 0,-6.71974 -1.43994,-10.55959 -1.43995,-4.07984 -5.51979,-9.35964 -2.39991,-3.11988 -6.23976,-7.43971 -3.83985,-4.559824 -7.91969,-9.359638 -3.83985,-4.799814 -7.6797,-9.359637 -3.59986,-4.559824 -5.75978,-7.919694 -3.35987,-5.279795 -4.79981,-10.799582 -1.19996,-5.519786 -1.19996,-14.159451 l 0,-29.518857 q 0,-32.638736 31.91877,-32.638736 16.31936,0 23.0391,8.1596836 6.95974,7.9196933 6.95974,24.4790524 l 0,27.11895 q 0,4.799814 -2.87989,7.679702 -2.6399,2.639898 -7.43972,2.639898 -4.79981,0 -7.6797,-2.639898 -2.6399,-2.879888 -2.6399,-7.679702 l 0,-26.87896 q 0,-4.799814 -2.15991,-7.679702 -2.15992,-2.8798887 -7.19972,-2.8798887 -9.35964,0 -9.35964,10.3196007 l 0,29.278866 q 0,4.079842 0.71997,7.199721 0.71997,3.119879 3.11988,6.239759 1.67994,2.639897 5.2798,6.719739 3.59986,4.079842 7.6797,8.879657 4.07984,4.559823 7.91969,9.599628 4.07984,4.799814 6.95973,8.879656 2.39991,3.35987 3.83985,6.719743 1.67994,3.11988 2.6399,6.71974 0.95996,3.59986 1.43995,7.91969 0.47998,4.31983 0.47998,10.07961 l 0,28.3189 q 0,15.83939 -7.43971,24.23906 -7.19973,8.39968 -23.75908,8.39968 -16.55936,0 -23.99908,-8.39968 -7.43971,-8.39967 -7.43971,-24.23906 l 0,-32.87872 q 0,-4.79982 2.87989,-7.67971 3.11988,-2.87988 7.91969,-2.87988 4.79982,0 7.67971,2.87988 2.87989,2.87989 2.87989,7.67971 l 0,32.87872 q 0,4.79982 2.15991,7.67971 2.39991,2.87988 7.43971,2.87988 9.59963,0 9.59963,-10.55959 l 0,-28.07891 z"
           style="font-size:239.9907074px;fill:#ffffff"
           id="path5530" />
        <path
           d="m -640.92141,63.678106 q 0,-14.399443 6.71974,-22.079145 6.71974,-7.679703 20.87919,-7.679703 14.15945,0 21.11918,7.679703 6.95973,7.679702 6.95973,22.079145 l 0,93.836364 q 0,14.39944 -6.95973,22.07915 -6.95973,7.43971 -21.11918,7.43971 -14.15945,0 -20.87919,-7.43971 -6.71974,-7.67971 -6.71974,-22.07915 l 0,-93.836364 z m 35.99861,0.719972 q 0,-4.799814 -1.67994,-7.199721 -1.67993,-2.639898 -6.47975,-2.639898 -4.79981,0 -6.71974,2.639898 -1.67993,2.399907 -1.67993,7.199721 l 0,92.636412 q 0,4.79982 1.67993,7.19972 1.91993,2.39991 6.71974,2.39991 4.79982,0 6.47975,-2.39991 1.67994,-2.6399 1.67994,-7.43971 l 0,-92.396422 z"
           style="font-size:239.9907074px;fill:#ffffff"
           id="path5532" />
        <path
           d="m -550.18992,176.23375 q 0,4.55982 -2.87988,7.43971 -2.6399,2.6399 -6.95973,2.6399 -4.55983,0 -7.43972,-2.6399 -2.63989,-2.87989 -2.63989,-7.43971 l 0,-180.4730143 q 0,-4.3198328 2.63989,-6.9597307 2.87989,-2.879888 7.43972,-2.879888 4.31983,0 6.95973,2.879888 2.87988,2.6398979 2.87988,6.9597307 l 0,180.4730143 0,0 z"
           style="font-size:239.9907074px;fill:#ffffff"
           id="path5534" />
        <path
           d="m -513.14885,8.7202339 q 0,4.5598231 -2.87989,7.4397121 -2.6399,2.639898 -6.95973,2.639898 -4.55983,0 -7.43971,-2.639898 -2.6399,-2.879889 -2.6399,-7.4397121 l 0,-12.9594982 q 0,-4.3198328 2.6399,-6.9597307 2.87988,-2.879888 7.43971,-2.879888 4.31983,0 6.95973,2.879888 2.87989,2.6398979 2.87989,6.9597307 l 0,12.9594982 z m 0,167.5135161 q 0,4.55982 -2.87989,7.43971 -2.6399,2.6399 -6.95973,2.6399 -4.55983,0 -7.43971,-2.6399 -2.6399,-2.87989 -2.6399,-7.43971 l 0,-131.51491 q 0,-4.319833 2.6399,-6.959731 2.87988,-2.879888 7.43971,-2.879888 4.31983,0 6.95973,2.879888 2.87989,2.639898 2.87989,6.959731 l 0,131.51491 z"
           style="font-size:239.9907074px;fill:#ffffff"
           id="path5536" />
        <path
           d="m -460.30216,43.038905 q 0.47998,-4.079842 3.11988,-5.999768 2.6399,-2.159916 5.99977,-2.159916 4.07984,0 6.71974,2.399907 2.87989,2.159916 2.87989,6.239758 0,0.959963 -0.24,3.11988 0,2.159916 -0.47998,4.559823 l -17.75931,125.275151 q -0.71997,4.79981 -4.07984,7.43971 -3.11988,2.39991 -7.43971,2.39991 -4.55983,0 -7.67971,-2.6399 -3.11987,-2.87989 -3.59986,-7.19972 L -499.90063,51.918561 q -0.47998,-2.639898 -0.71997,-4.799814 0,-2.159916 0,-3.119879 0,-4.079842 2.87989,-6.479749 3.11988,-2.639898 7.19972,-2.639898 3.59986,0 6.23976,2.159916 2.6399,1.919926 3.11988,6.239759 1.91992,15.839386 3.59986,30.71881 1.67993,14.639433 2.87989,27.118954 1.43994,12.23952 2.15991,21.35917 0.95997,9.11965 1.19996,13.67947 1.43994,-12.23953 2.39991,-22.07915 1.19995,-10.07961 2.3999,-20.399206 1.19996,-10.3196 2.6399,-22.319136 1.43994,-11.999535 3.59986,-28.318903 z"
           style="font-size:239.9907074px;fill:#ffffff"
           id="path5538" />
        <path
           d="m -379.76651,178.15367 q 0,8.15969 -7.67971,8.15969 -3.83985,0 -6.47975,-1.91993 -2.63989,-2.15991 -4.07984,-7.6797 -2.87989,5.0398 -6.71974,7.6797 -3.83985,2.6399 -10.55959,2.6399 -19.67924,0 -19.67924,-23.51909 l 0,-21.83915 q 0,-10.5596 2.6399,-17.51933 2.87989,-7.19972 7.6797,-11.99953 5.03981,-5.03981 11.51956,-8.39968 6.47975,-3.35987 13.91946,-6.719736 l 0,-33.598699 q 0,-4.799814 -1.91993,-6.95973 -1.67993,-2.399907 -6.23975,-2.399907 -4.79982,0 -6.47975,2.639897 -1.43995,2.399907 -1.43995,6.71974 l 0,23.75908 q 0,4.079842 -2.39991,6.479749 -2.3999,2.399907 -6.47974,2.399907 -4.07985,0 -6.47975,-2.399907 -2.15992,-2.399907 -2.15992,-6.479749 l 0,-23.999071 q 0,-29.278866 26.15899,-29.278866 26.63897,0 26.63897,29.278866 l 0,108.475796 q 0,1.91993 0,3.59986 0.23999,1.43995 0.23999,2.87989 z m -19.43925,-65.03748 q -5.99977,2.15992 -9.35964,5.03981 -3.11988,2.63989 -4.79981,6.23975 -1.43995,3.59987 -1.67994,8.39968 -0.23999,4.55982 -0.23999,10.3196 l 0,15.35941 q 0,9.11964 7.9197,9.11964 3.35987,0 5.0398,-1.67993 1.91993,-1.67994 3.11988,-4.79982 l 0,-47.99814 z"
           style="font-size:239.9907074px;fill:#ffffff"
           id="path5540" />
        <path
           d="m -664.4645,490.59456 q 0,6.55174 -4.05584,10.60759 -3.74385,3.74385 -10.2956,3.74385 -6.55175,0 -10.60759,-3.74385 -3.74386,-4.05585 -3.74386,-10.60759 l 0,-215.27166 -14.03945,0 q -14.66343,0 -14.66343,-14.03946 0,-14.97542 14.66343,-14.97542 l 57.09379,0 q 14.35144,0 14.35144,14.97542 0,14.03946 -14.35144,14.03946 l -14.35145,0 0,215.27166 0,0 z"
           style="font-size:311.98791504px;fill:#ffffff"
           id="path5542" />
        <path
           d="m -590.53798,346.45614 q 0,-12.47952 -10.29561,-12.47952 -10.2956,0 -10.2956,12.47952 l 0,44.92626 20.59121,0 0,-44.92626 z m 0,88.29258 q 0,-5.30379 3.43186,-8.73566 3.43187,-3.43187 8.73566,-3.43187 5.3038,0 8.73567,3.43187 3.43186,3.43187 3.43186,8.73566 l 0,32.13476 q 0,38.99848 -34.63066,38.99848 -34.31867,0 -34.31867,-38.99848 l 0,-120.42734 q 0,-39.62247 34.31867,-39.62247 34.63066,0 34.63066,39.62247 l 0,46.4862 q 0,7.7997 -4.67982,12.47952 -4.67982,4.67981 -12.47951,4.67981 l -27.76693,0 0,56.78181 q 0,12.47951 9.98362,12.47951 10.60759,0 10.60759,-12.7915 l 0,-31.82277 z"
           style="font-size:311.98791504px;fill:#ffffff"
           id="path5544" />
        <path
           d="m -501.5288,434.43673 q 0,-5.30379 3.43187,-8.73566 3.43187,-3.43187 8.73566,-3.43187 5.3038,0 8.73566,3.43187 3.43187,3.43187 3.43187,8.73566 l 0,32.75873 q 0,17.78331 -8.42367,28.3909 -8.42368,10.2956 -26.51898,10.2956 -18.71927,0 -27.45493,-10.60758 -8.42368,-10.91958 -8.42368,-28.70289 l 0,-119.80336 q 0,-17.78331 8.42368,-28.70289 8.73566,-11.23157 27.45493,-11.23157 18.0953,0 26.20699,10.91958 8.11168,10.91958 8.11168,28.70289 l 0,31.82277 q 0,5.30379 -3.43186,8.73566 -3.11988,3.11988 -8.42368,3.11988 -5.30379,0 -8.73566,-3.11988 -3.11988,-3.43187 -3.11988,-8.73566 l 0,-32.44675 q 0,-12.16752 -10.60759,-12.16752 -10.60759,0 -10.60759,12.47951 l 0,120.42734 q 0,12.7915 10.60759,12.7915 10.60759,0 10.60759,-12.7915 l 0,-32.13476 z"
           style="font-size:311.98791504px;fill:#ffffff"
           id="path5546" />
        <path
           d="m -384.46997,491.84251 q 0,5.92777 -3.74385,9.67162 -3.43187,3.43187 -9.35964,3.43187 -5.92777,0 -9.67162,-3.43187 -3.43187,-3.74385 -3.43187,-9.67162 l 0,-147.88227 q 0,-11.54356 -9.35964,-11.54356 -3.43187,0 -6.86373,1.87193 -3.11988,1.55994 -4.99181,5.61578 l 0,151.93812 q 0,5.92777 -3.74386,9.67162 -3.43186,3.43187 -9.04764,3.43187 -5.92778,0 -9.67163,-3.43187 -3.43187,-3.74385 -3.43187,-9.67162 l 0,-234.61491 q 0,-5.61579 3.43187,-9.04765 3.74385,-3.74386 9.67163,-3.74386 5.61578,0 9.04764,3.74386 3.74386,3.43186 3.74386,9.04765 l 0,60.52565 q 9.04765,-10.91958 23.08711,-10.91958 24.33505,0 24.33505,35.56663 l 0,149.44221 0,0 z"
           style="font-size:311.98791504px;fill:#ffffff"
           id="path5548" />
        <path
           d="m -655.58484,763.35898 q 0,-6.38375 3.69586,-10.07961 4.03184,-4.03184 10.4156,-4.03184 6.38375,0 10.07961,4.03184 4.03184,3.69586 4.03184,10.07961 l 0,45.02226 q 0,24.52705 -9.74362,35.95061 -9.74363,11.42356 -31.58278,11.42356 -44.35029,0 -44.35029,-46.70219 l 0,-188.15272 q 0,-47.71016 43.67831,-47.71016 41.99838,0 41.99838,47.03818 l 0,36.95857 q 0,6.38376 -4.03184,10.4156 -3.69586,3.69586 -10.07961,3.69586 -6.38376,0 -10.4156,-3.69586 -3.69586,-4.03184 -3.69586,-10.4156 l 0,-36.95857 q 0,-7.7277 -3.02388,-11.75954 -2.6879,-4.03185 -9.40764,-4.03185 -13.43948,0 -13.43948,15.79139 l 0,188.48871 q 0,16.12738 13.1035,16.12738 12.7675,0 12.7675,-16.12738 l 0,-45.35825 z"
           style="font-size:335.98699951px;fill:#ffffff"
           id="path5550" />
        <path
           d="m -578.79606,840.63599 q 0,6.38376 -4.03184,10.4156 -3.69586,3.69586 -9.74363,3.69586 -6.38375,0 -10.41559,-3.69586 -3.69586,-4.03184 -3.69586,-10.4156 l 0,-252.66222 q 0,-6.04777 3.69586,-9.74362 4.03184,-4.03185 10.41559,-4.03185 6.04777,0 9.74363,4.03185 4.03184,3.69585 4.03184,9.74362 l 0,252.66222 0,0 z"
           style="font-size:335.98699951px;fill:#ffffff"
           id="path5552" />
        <path
           d="m -478.22045,842.65192 q 0,5.71178 -3.35987,9.07165 -3.02388,3.02388 -8.73566,3.02388 -5.71178,0 -9.07165,-3.35987 -3.35987,-3.69586 -3.69585,-11.75955 -9.40764,15.11942 -26.87896,15.11942 -13.43948,0 -20.15922,-9.07165 -6.38376,-9.40764 -6.38376,-26.54297 l 0,-162.61771 q 0,-6.04777 3.69586,-9.74362 4.03184,-4.03185 10.4156,-4.03185 6.04776,0 9.74362,4.03185 4.03184,3.69585 4.03184,9.74362 l 0,158.24988 q 0,12.43151 9.74363,12.43151 3.69585,0 7.05572,-1.67993 3.35987,-2.01592 5.3758,-6.38375 l 0,-162.28172 q 0,-6.38376 3.69585,-10.07961 4.03185,-4.03185 10.4156,-4.03185 6.38375,0 10.07961,4.03185 4.03184,3.69585 4.03184,10.07961 l 0,185.80081 0,0 z"
           style="font-size:335.98699951px;fill:#ffffff"
           id="path5554" />
        <path
           d="m -402.36088,682.7221 q 0,-12.09553 -11.08757,-12.09553 -4.36783,0 -8.06369,2.35191 -3.35987,2.01592 -5.0398,6.71974 l 0,135.73875 q 3.35987,9.40764 13.10349,9.40764 5.71178,0 8.39968,-3.02389 2.68789,-3.02388 2.68789,-10.07961 l 0,-129.01901 z m -6.04776,172.02535 q -10.07961,0 -16.46337,-3.69586 -6.38375,-4.03184 -11.08757,-11.75954 l -1.67993,9.07165 q -0.67198,3.69585 -3.35987,5.0398 -2.35191,1.34395 -5.03981,1.34395 -8.39967,0 -8.39967,-8.73566 l 0,-258.03802 q 0,-6.04777 3.69586,-9.74362 4.03184,-4.03185 10.41559,-4.03185 6.04777,0 9.74363,4.03185 4.03184,3.69585 4.03184,9.74362 l 0,63.16556 q 8.06369,-9.74363 22.84712,-9.74363 14.78342,0 21.83915,9.07165 7.39171,9.07165 7.39171,29.23087 l 0,131.70691 q 0,43.34232 -33.93468,43.34232 z"
           style="font-size:335.98699951px;fill:#ffffff"
           id="path5556" />
      </g>
      <g
         style="fill:#000000"
         transform="matrix(1.5087426,0,0,1.4975821,-1631.9538,-16.734637)"
         id="g4357">
        <g
           style="fill:#ffffff"
           id="g4303">
          <g
             style="fill:#ffffff"
             id="g4305">
            <path
               style="fill:#ffffff"
               inkscape:connector-curvature="0"
               d="m 504.5,248.501 -120.758,0 0,-17.064 32.581,0 c 4.142,0 7.5,-3.358 7.5,-7.5 0,-4.142 -3.358,-7.5 -7.5,-7.5 l -32.581,0 0,-17.065 22.62,0 c 8.427,0 16.35,-3.281 22.308,-9.24 l 49.326,-49.326 c 3.214,1.601 6.777,2.453 10.473,2.453 6.286,0 12.195,-2.448 16.64,-6.892 4.445,-4.445 6.893,-10.354 6.893,-16.64 0,-6.286 -2.448,-12.195 -6.893,-16.64 -4.444,-4.445 -10.354,-6.893 -16.64,-6.893 -6.286,0 -12.195,2.448 -16.64,6.892 -4.445,4.445 -6.893,10.354 -6.893,16.64 0,3.696 0.852,7.259 2.453,10.473 l -49.326,49.326 c -3.125,3.125 -7.281,4.847 -11.702,4.847 l -22.62,0 0,-16.548 c 0,-21.816 -17.749,-39.564 -39.564,-39.564 l -16.548,0 0,-66.395 c 9.308,-3.139 16.032,-11.946 16.032,-22.3 0,-12.976 -10.557,-23.532 -23.532,-23.532 -12.975,0 -23.532,10.557 -23.532,23.532 0,10.354 6.724,19.16 16.032,22.3 l 0,66.394 -17.064,0 0,-32.581 c 0,-4.142 -3.358,-7.5 -7.5,-7.5 -4.142,0 -7.5,3.358 -7.5,7.5 l 0,32.581 -17.065,0 0,-120.758 c 0,-4.142 -3.358,-7.5 -7.5,-7.5 -4.142,0 -7.5,3.358 -7.5,7.5 l 0,120.758 -17.064,0 0,-32.581 c 0,-4.142 -3.358,-7.5 -7.5,-7.5 -4.142,0 -7.5,3.358 -7.5,7.5 l 0,32.581 -17.064,0 0,-22.619 c 0,-8.427 -3.282,-16.35 -9.241,-22.308 L 140.788,33.989 c 4.359,-8.801 2.898,-19.775 -4.421,-27.095 -9.176,-9.175 -24.105,-9.174 -33.28,0 -9.175,9.175 -9.175,24.104 0,33.28 4.588,4.587 10.614,6.881 16.64,6.881 3.588,0 7.17,-0.833 10.455,-2.46 l 49.343,49.344 c 3.126,3.125 4.847,7.281 4.847,11.701 l 0,22.619 -16.548,0 c -3.345,0 -6.672,0.42 -9.888,1.247 -4.011,1.032 -6.426,5.121 -5.394,9.133 1.032,4.012 5.122,6.427 9.133,5.394 1.995,-0.513 4.063,-0.774 6.148,-0.774 l 176.354,0 c 13.545,0 24.564,11.02 24.564,24.564 l 0,176.355 c 0,2.083 -0.26,4.15 -0.772,6.143 -1.031,4.012 1.385,8.1 5.396,9.131 0.626,0.161 1.254,0.238 1.873,0.238 3.341,0 6.388,-2.249 7.258,-5.635 0.826,-3.212 1.245,-6.536 1.245,-9.878 l 0,-16.548 66.394,0 c 3.139,9.308 11.946,16.032 22.3,16.032 12.976,0 23.532,-10.556 23.532,-23.532 0,-12.976 -10.557,-23.532 -23.532,-23.532 -10.354,0 -19.16,6.724 -22.3,16.032 l -66.394,0 0,-17.065 32.581,0 c 4.142,0 7.5,-3.358 7.5,-7.5 0,-4.142 -3.358,-7.5 -7.5,-7.5 l -32.581,0 0,-17.063 120.759,0 c 4.142,0 7.5,-3.358 7.5,-7.5 0,-4.142 -3.358,-7.5 -7.5,-7.5 z M 482.435,113.694 c 1.612,-1.612 3.754,-2.499 6.033,-2.499 2.279,0 4.421,0.887 6.033,2.499 1.612,1.612 2.499,3.754 2.499,6.033 0,2.279 -0.887,4.421 -2.499,6.033 -1.612,1.612 -3.754,2.499 -6.033,2.499 -2.279,0 -4.421,-0.887 -6.033,-2.499 -1.612,-1.612 -2.499,-3.754 -2.499,-6.033 0,-2.279 0.887,-4.422 2.499,-6.033 z M 125.759,29.568 c -3.326,3.325 -8.739,3.326 -12.067,-0.001 -3.327,-3.327 -3.327,-8.74 0,-12.066 1.664,-1.664 3.848,-2.495 6.034,-2.495 2.185,0 4.37,0.832 6.033,2.495 3.327,3.327 3.327,8.74 0,12.067 z m 194.37,18.529 c -4.704,0 -8.532,-3.828 -8.532,-8.532 0,-4.704 3.827,-8.532 8.532,-8.532 4.705,0 8.532,3.828 8.532,8.532 0,4.704 -3.828,8.532 -8.532,8.532 z m 152.307,263.501 c 4.705,0 8.532,3.828 8.532,8.532 0,4.705 -3.828,8.532 -8.532,8.532 -4.704,0 -8.532,-3.828 -8.532,-8.532 -10e-4,-4.705 3.827,-8.532 8.532,-8.532 z"
               id="path4307" />
          </g>
        </g>
        <g
           style="fill:#ffffff"
           id="g4309">
          <g
             style="fill:#ffffff"
             id="g4311">
            <path
               style="fill:#ffffff"
               inkscape:connector-curvature="0"
               d="m 408.914,471.829 c -7.319,-7.32 -18.294,-8.781 -27.095,-4.422 l -49.343,-49.344 c -3.126,-3.125 -4.847,-7.281 -4.847,-11.701 l 0,-22.619 16.548,0 c 3.345,0 6.671,-0.42 9.886,-1.247 4.011,-1.032 6.426,-5.121 5.394,-9.133 -1.032,-4.011 -5.119,-6.426 -9.133,-5.394 -1.994,0.513 -4.062,0.773 -6.147,0.773 l -176.354,0 c -13.545,0 -24.564,-11.02 -24.564,-24.564 l 0,-176.354 c 0,-2.085 0.26,-4.153 0.773,-6.146 1.033,-4.011 -1.382,-8.1 -5.393,-9.133 -4.012,-1.033 -8.101,1.382 -9.133,5.393 -0.828,3.214 -1.247,6.54 -1.247,9.886 l 0,16.548 -66.395,0 c -3.139,-9.308 -11.946,-16.032 -22.3,-16.032 -12.976,0 -23.532,10.556 -23.532,23.532 0,12.976 10.557,23.532 23.532,23.532 10.354,0 19.16,-6.724 22.3,-16.032 l 66.394,0 0,17.065 -32.581,0 c -4.142,0 -7.5,3.358 -7.5,7.5 0,4.142 3.358,7.5 7.5,7.5 l 32.581,0 0,17.064 -120.758,0 c -4.142,0 -7.5,3.358 -7.5,7.5 0,4.142 3.358,7.5 7.5,7.5 l 120.758,0 0,17.064 -32.581,0 c -4.142,0 -7.5,3.358 -7.5,7.5 0,4.142 3.358,7.5 7.5,7.5 l 32.581,0 0,17.065 -22.62,0 c -8.427,0 -16.35,3.281 -22.308,9.24 l -49.326,49.326 c -3.214,-1.601 -6.777,-2.453 -10.473,-2.453 -6.286,0 -12.195,2.448 -16.64,6.892 C 2.448,380.08 0,385.99 0,392.275 c 0,6.285 2.448,12.195 6.893,16.64 4.444,4.445 10.354,6.892 16.64,6.892 6.286,0 12.195,-2.448 16.64,-6.892 4.445,-4.445 6.893,-10.354 6.893,-16.64 0,-3.696 -0.852,-7.259 -2.453,-10.473 l 49.326,-49.326 c 3.125,-3.125 7.281,-4.847 11.702,-4.847 l 22.62,0 0,16.548 c 0,21.816 17.749,39.564 39.564,39.564 l 16.548,0 0,66.394 c -9.308,3.139 -16.032,11.946 -16.032,22.3 0,12.976 10.557,23.532 23.532,23.532 12.975,0 23.532,-10.557 23.532,-23.532 0,-10.354 -6.724,-19.16 -16.032,-22.3 l 0,-66.394 17.064,0 0,32.581 c 0,4.142 3.358,7.5 7.5,7.5 4.142,0 7.5,-3.358 7.5,-7.5 l 0,-32.581 17.063,0 0,120.76 c 0,4.142 3.358,7.5 7.5,7.5 4.142,0 7.5,-3.358 7.5,-7.5 l 0,-120.758 17.064,0 0,32.581 c 0,4.142 3.358,7.5 7.5,7.5 4.142,0 7.5,-3.358 7.5,-7.5 l 0,-32.581 17.064,0 0,22.619 c 0,8.427 3.282,16.35 9.241,22.308 l 49.343,49.343 c -4.359,8.801 -2.898,19.775 4.422,27.095 4.587,4.588 10.614,6.881 16.64,6.881 6.026,0 12.053,-2.293 16.64,-6.881 9.175,-9.175 9.175,-24.104 0,-33.279 z M 39.564,200.404 c -4.705,0 -8.532,-3.828 -8.532,-8.532 0,-4.705 3.828,-8.532 8.532,-8.532 4.704,0 8.532,3.828 8.532,8.532 0.001,4.705 -3.827,8.532 -8.532,8.532 z m -9.999,197.904 c -1.612,1.612 -3.754,2.499 -6.033,2.499 -2.279,0 -4.421,-0.887 -6.033,-2.499 C 15.887,396.696 15,394.554 15,392.275 c 0,-2.279 0.887,-4.421 2.499,-6.033 1.612,-1.612 3.754,-2.499 6.033,-2.499 2.279,0 4.421,0.887 6.033,2.499 1.612,1.612 2.499,3.754 2.499,6.033 0,2.279 -0.887,4.422 -2.499,6.033 z m 170.838,74.129 c 0,4.704 -3.827,8.532 -8.532,8.532 -4.705,0 -8.532,-3.828 -8.532,-8.532 0,-4.704 3.828,-8.532 8.532,-8.532 4.704,0 8.532,3.828 8.532,8.532 z m 197.905,22.065 c -3.327,3.327 -8.74,3.326 -12.067,0 -3.327,-3.327 -3.327,-8.74 0,-12.066 1.664,-1.663 3.849,-2.495 6.034,-2.495 2.185,0 4.37,0.832 6.033,2.495 3.326,3.326 3.326,8.739 0,12.066 z"
               id="path4313" />
          </g>
        </g>
        <g
           style="fill:#ffffff;fill-opacity:1"
           id="g4315">
          <g
             style="fill:#ffffff;fill-opacity:1"
             id="g4317">
            <path
               style="fill:#ffffff;fill-opacity:1"
               inkscape:connector-curvature="0"
               d="m 335.645,235.962 c 0,-16.04 -11.732,-29.627 -27.793,-34.042 0.475,-1.961 0.739,-3.978 0.739,-6.039 0,-15.186 -13.479,-27.541 -30.045,-27.541 -8.974,0 -17.035,3.629 -22.545,9.365 -5.51,-5.736 -13.572,-9.365 -22.545,-9.365 -16.567,0 -30.045,12.355 -30.045,27.541 0,2.061 0.264,4.078 0.739,6.039 -16.061,4.414 -27.793,18.001 -27.793,34.042 0,7.839 2.774,15.235 7.899,21.343 -5.011,6.487 -7.899,14.362 -7.899,22.746 -0.002,12.752 6.812,24.659 18.035,32.045 0,0.006 0,0.012 0,0.018 0,17.396 15.501,31.549 34.555,31.549 10.95,0 20.719,-4.679 27.054,-11.957 6.335,7.278 16.104,11.957 27.054,11.957 18.337,0 33.376,-13.11 34.482,-29.602 11.137,-6.462 18.108,-17.781 18.108,-30.003 0,-8.99 -3.833,-17.566 -10.43,-24.048 6.596,-6.482 10.43,-15.059 10.43,-24.048 z m -26.544,30.68 c 7.227,3.814 11.541,10.325 11.541,17.416 0,5.287 -2.457,10.33 -6.607,14.101 -3.943,-7.301 -10.912,-13.113 -19.717,-15.879 -3.95,-1.241 -8.161,0.956 -9.403,4.907 -1.242,3.952 0.956,8.162 4.907,9.403 7.646,2.403 12.784,8.642 12.784,15.525 0,9.125 -8.772,16.549 -19.555,16.549 -10.782,0 -19.554,-7.424 -19.554,-16.549 l 0,-48.097 c 0,-9.125 8.772,-16.548 19.554,-16.548 4.142,0 7.5,-3.358 7.5,-7.5 0,-4.142 -3.358,-7.5 -7.5,-7.5 -7.254,0 -13.99,2.056 -19.554,5.557 l 0,-9.58 c 0,-4.142 -3.358,-7.5 -7.5,-7.5 -4.142,0 -7.5,3.358 -7.5,7.5 l 0,41.637 c -2.524,-1.584 -5.292,-2.895 -8.286,-3.836 -3.954,-1.242 -8.162,0.956 -9.403,4.906 -1.242,3.952 0.955,8.162 4.906,9.404 7.646,2.403 12.783,8.642 12.783,15.524 l 0,16.032 c 0,9.125 -8.772,16.549 -19.554,16.549 -10.783,0 -19.555,-7.424 -19.555,-16.549 0,-3.911 1.658,-7.713 4.668,-10.705 2.938,-2.92 2.952,-7.669 0.032,-10.607 -2.92,-2.938 -7.668,-2.952 -10.606,-0.032 -1.797,1.787 -3.344,3.739 -4.63,5.814 -4.736,-4.48 -7.501,-10.374 -7.501,-16.535 0,-11.112 8.721,-20.874 21.208,-23.739 4.037,-0.926 6.559,-4.95 5.633,-8.987 -0.926,-4.038 -4.951,-6.559 -8.987,-5.633 -5.027,1.153 -9.655,3.078 -13.759,5.605 -2.661,-3.342 -4.094,-7.256 -4.094,-11.335 0.003,-11.281 10.697,-20.465 23.88,-20.552 0.067,0.002 0.134,0.011 0.2,0.011 1.712,0 3.433,-0.583 4.842,-1.776 2.875,-2.434 3.452,-6.564 1.522,-9.671 -0.057,-0.092 -0.109,-0.186 -0.169,-0.275 -0.031,-0.045 -0.068,-0.088 -0.1,-0.133 -0.116,-0.163 -0.235,-0.323 -0.364,-0.477 -0.004,-0.005 -0.007,-0.01 -0.011,-0.014 -1.251,-1.479 -2.744,-3.927 -2.744,-7.193 0,-6.915 6.75,-12.541 15.045,-12.541 8.295,0 15.045,5.626 15.045,12.541 0,4.142 3.358,7.5 7.5,7.5 4.142,0 7.5,-3.358 7.5,-7.5 0,-6.915 6.75,-12.541 15.045,-12.541 8.295,0 15.045,5.626 15.045,12.541 0,1.848 -0.484,3.424 -1.125,4.72 -4.266,0.403 -8.392,1.434 -12.309,3.086 -3.817,1.609 -5.606,6.008 -3.997,9.825 1.609,3.816 6.008,5.607 9.825,3.997 3.242,-1.367 6.73,-2.07 10.368,-2.098 0.072,0.002 0.143,0.009 0.215,0.009 0.067,0 0.133,-0.009 0.2,-0.011 13.183,0.086 23.877,9.271 23.877,20.552 0,7.091 -4.314,13.601 -11.541,17.416 -2.46,1.298 -4,3.851 -4,6.633 0,2.782 1.54,5.335 4,6.633 z"
               id="path4319" />
          </g>
        </g>
        <g
           style="fill:#000000"
           id="g4321" />
        <g
           style="fill:#000000"
           id="g4323" />
        <g
           style="fill:#000000"
           id="g4325" />
        <g
           style="fill:#000000"
           id="g4327" />
        <g
           style="fill:#000000"
           id="g4329" />
        <g
           style="fill:#000000"
           id="g4331" />
        <g
           style="fill:#000000"
           id="g4333" />
        <g
           style="fill:#000000"
           id="g4335" />
        <g
           style="fill:#000000"
           id="g4337" />
        <g
           style="fill:#000000"
           id="g4339" />
        <g
           style="fill:#000000"
           id="g4341" />
        <g
           style="fill:#000000"
           id="g4343" />
        <g
           style="fill:#000000"
           id="g4345" />
        <g
           style="fill:#000000"
           id="g4347" />
        <g
           style="fill:#000000"
           id="g4349" />
      </g>
    </g>
  </g>
</svg>
